<?xml version="1.0" encoding="UTF-8"?>
<svg id="Layer_1" data-name="Layer 1" xmlns="http://www.w3.org/2000/svg" viewBox="0 0 720.56 150.55">
  <defs>
    <style>
      .cls-1 {
        fill: #ff006c;
      }

      .cls-1, .cls-2 {
        stroke-width: 0px;
      }

      .cls-2 {
        fill: #abff71;
      }
    </style>
  </defs>
  <g>
    <path class="cls-1" d="M15.94,0h79.17s-1.56,96.94-40.07,97.32S15.94,0,15.94,0Z"/>
    <rect class="cls-1" x="46.27" y="83.61" width="17.84" height="43.24"/>
    <polyline class="cls-1" points="30.71 126.85 79.67 126.85 54.68 118.92"/>
    <rect class="cls-1" x="30.71" y="126.85" width="48.96" height="23.7"/>
    <path class="cls-1" d="M76.32,38.4v-8.43h33.88l.17,4.04c.03.71.59,17.42-10.92,29.13-7.09,7.22-17.04,10.87-29.58,10.87-.52,0-1.03,0-1.56-.02l.2-8.42"/>
    <path class="cls-1" d="M44.05,65.58l.19,8.42c-.55.01-1.1.02-1.64.02-13.59,0-24.27-3.87-31.74-11.51C-.59,50.82-.02,34.68.01,34l.18-4.03h35.59v8.43"/>
    <rect class="cls-1" x="13.82" width="83.42" height="8.55"/>
  </g>
  <g>
    <path class="cls-2" d="M206.03,65.74h-45.3v-29.75h127.85v29.75h-45.39v53.19h-37.16v-53.19Z"/>
    <path class="cls-2" d="M420.93,129.49l-70.48-37.76,14.75-25.86h-36.29v53.06h-35.24V35.98h125.93l-23.56,41.53,24.9,11.78v40.19Z"/>
    <path class="cls-2" d="M554.9,35.98v82.94h-141.54l47.12-82.94h94.42ZM519.66,90.51v-25.86h-36.1l-14.75,25.86h50.85Z"/>
    <path class="cls-2" d="M564.95,35.98h114.06v29.75h-78.91v53.19h-35.15V35.98ZM679.01,77.51v29.51h-62.92l-15.99-29.51h78.91Z"/>
    <path class="cls-2" d="M686.76,35.98h33.8v12.14h-33.8v-12.14ZM720.56,52.01v66.91h-33.8V52.01h33.8Z"/>
  </g>
</svg>